<?xml version="1.0" standalone="no"?>
<!DOCTYPE svg PUBLIC "-//W3C//DTD SVG 20010904//EN"
 "http://www.w3.org/TR/2001/REC-SVG-20010904/DTD/svg10.dtd">
<svg version="1.0" xmlns="http://www.w3.org/2000/svg"
 width="260.000000pt" height="260.000000pt" viewBox="0 0 260.000000 260.000000"
 preserveAspectRatio="xMidYMid meet">
<metadata>
Created by potrace 1.14, written by Peter Selinger 2001-2017
</metadata>
<g transform="translate(0.000000,260.000000) scale(0.100000,-0.100000)"
fill="#000000" stroke="none">
<path d="M1233 2395 c-29 -8 -78 -28 -109 -45 -31 -16 -65 -30 -76 -30 -22 0
-70 -23 -111 -54 l-28 -21 -39 23 c-53 30 -95 29 -129 -5 -23 -23 -35 -27 -69
-25 -50 4 -147 -33 -195 -74 -78 -67 -110 -166 -71 -222 9 -13 11 -22 4 -22
-14 0 -50 -61 -43 -74 4 -5 -11 -25 -33 -44 -21 -19 -33 -31 -25 -26 9 5 12 3
7 -5 -4 -6 -11 -9 -16 -6 -15 9 -57 -58 -70 -113 -11 -47 -10 -59 8 -110 11
-31 23 -73 27 -92 10 -48 41 -106 82 -158 20 -25 44 -71 54 -107 22 -71 84
-162 146 -211 48 -39 116 -74 142 -74 11 0 22 -4 26 -9 9 -15 141 -41 216 -43
66 -1 68 -2 47 -16 -13 -9 -26 -21 -30 -26 -12 -17 -9 -54 4 -62 7 -4 8 -3 4
5 -13 21 23 61 78 85 53 24 96 66 96 95 0 9 -8 3 -19 -15 -11 -18 -24 -35 -30
-39 -9 -5 30 59 44 73 2 2 22 -9 45 -24 l41 -29 -6 -60 c-12 -127 -12 -125
-59 -119 -26 4 -77 -2 -141 -17 -110 -25 -105 -25 -290 -14 -71 4 -128 5 -125
2 3 -2 57 -8 120 -12 63 -4 122 -11 130 -15 16 -8 100 -168 100 -189 0 -6 4
-11 10 -11 20 0 71 -148 106 -303 13 -61 24 -110 24 -111 0 -1 -31 -3 -118 -9
-20 -2 -27 9 -56 83 -46 117 -116 245 -201 370 -40 58 -74 114 -76 125 -2 11
-21 29 -42 41 -31 17 -35 23 -21 28 9 4 14 9 11 13 -4 3 -35 -5 -69 -20 -35
-14 -70 -25 -78 -25 -32 1 -196 -65 -221 -89 -38 -35 -54 -119 -45 -236 4 -50
11 -93 16 -95 19 -7 9 -34 -28 -80 -74 -91 -114 -152 -99 -152 12 0 39 36 146
200 l23 36 42 -43 c50 -52 97 -63 161 -39 45 18 74 44 97 90 l15 29 12 -34 c7
-19 16 -59 21 -89 l8 -55 -46 -47 -46 -48 61 0 c54 0 61 2 66 22 15 54 -48
251 -119 373 -21 37 -44 76 -50 87 -12 19 -21 29 -85 84 l-36 31 59 21 59 21
39 -39 c22 -22 40 -49 40 -60 0 -11 4 -20 10 -20 5 0 7 8 3 18 -7 23 97 -117
107 -143 13 -34 39 -204 46 -302 4 -51 11 -93 17 -93 12 0 2 141 -19 265 -22
132 -63 213 -169 333 l-40 45 60 -8 c66 -8 63 -5 131 -120 130 -223 153 -265
178 -321 l27 -60 -24 -67 -24 -67 26 2 c14 1 33 8 43 15 12 11 18 11 23 3 5
-7 24 -10 54 -6 25 3 77 8 116 12 86 7 121 23 53 24 -27 0 -48 5 -48 10 0 6
35 10 84 10 l85 0 30 -37 c35 -43 41 -36 11 13 -18 29 -28 34 -76 40 -30 3
-73 4 -94 1 l-39 -5 -22 97 c-12 53 -39 141 -60 195 -22 54 -38 100 -37 101 2
1 46 -44 98 -99 52 -56 153 -164 223 -239 84 -89 136 -137 149 -137 15 0 -14
35 -108 128 -300 295 -371 374 -412 455 l-38 76 100 24 c80 19 103 21 111 11
6 -7 39 -54 75 -105 36 -51 88 -116 115 -144 108 -111 183 -193 236 -255 53
-63 74 -89 137 -160 56 -65 41 -25 -17 45 l-59 70 19 95 c25 131 24 216 -6
333 -14 54 -28 103 -31 109 -15 23 64 -7 121 -46 53 -37 61 -47 72 -90 28
-112 17 -348 -22 -482 -9 -31 -14 -59 -11 -62 35 -35 84 403 58 518 l-11 45
35 -40 c99 -116 131 -206 168 -472 2 -17 -4 -25 -27 -33 -17 -5 -28 -13 -24
-16 3 -3 31 4 63 15 47 18 71 21 138 17 55 -4 70 -3 48 3 -18 5 -35 10 -36 12
-2 2 -7 48 -10 102 -8 118 -40 290 -67 359 -11 28 -18 53 -15 55 2 2 34 -6 71
-19 60 -21 68 -27 85 -65 33 -74 43 -150 36 -265 -4 -59 -9 -117 -11 -129 -3
-15 -1 -19 5 -13 5 5 14 68 19 138 9 133 3 188 -32 268 l-16 38 36 -15 c19 -8
38 -15 42 -15 15 1 -33 22 -115 51 -49 17 -93 35 -99 40 -5 5 -19 9 -31 9
l-23 0 20 -45 c42 -95 69 -254 69 -407 l0 -88 -50 0 c-56 0 -50 -10 -70 120
-13 94 -55 234 -83 280 -11 19 -45 68 -74 107 -29 40 -53 74 -53 76 0 5 119
-11 143 -19 32 -10 87 -12 81 -3 -3 5 -18 9 -34 9 -16 0 -62 7 -102 16 -40 8
-91 14 -113 12 -29 -2 -52 5 -85 24 -29 17 -68 30 -105 34 -95 11 -105 17
-105 63 l0 39 38 -5 c20 -3 64 3 97 12 56 15 138 23 245 24 37 0 55 8 100 41
29 22 63 40 75 40 12 0 40 13 62 29 75 54 131 145 133 213 0 17 13 39 36 61
44 41 58 94 56 211 -1 56 -7 87 -19 105 -9 15 -17 47 -18 75 -1 41 -6 53 -32
76 -17 15 -37 30 -44 32 -10 4 -7 13 14 36 23 24 30 42 34 89 9 95 -26 145
-138 202 -14 7 -32 27 -40 44 -18 41 -77 73 -157 86 -34 5 -66 12 -71 16 -5 3
-7 29 -4 58 4 44 2 56 -18 81 -41 52 -112 68 -203 45 -36 -9 -54 -7 -111 10
-78 24 -175 26 -252 6z m191 -385 c23 -8 26 -15 26 -56 0 -41 -5 -51 -36 -80
-19 -19 -39 -34 -44 -34 -5 0 -14 16 -20 35 -10 30 -9 40 5 61 19 30 24 28 27
-9 3 -33 14 -35 20 -4 6 36 -2 57 -23 57 -50 0 -139 -60 -139 -94 0 -29 58
-83 103 -95 37 -11 50 -10 99 9 62 23 138 74 138 92 0 6 7 4 18 -5 22 -20 75
-22 90 -4 6 6 13 24 17 40 9 33 10 33 50 3 44 -34 106 -128 115 -174 l7 -39
-49 -1 c-41 -1 -55 -7 -98 -43 -48 -41 -66 -78 -62 -131 1 -15 -8 -18 -41 -18
-23 0 -52 -3 -64 -6 -21 -6 -23 -3 -23 38 0 24 -5 49 -12 56 -10 10 -5 11 22
6 l35 -5 -30 26 c-37 31 -99 69 -89 54 3 -6 -5 -3 -20 6 -22 15 -41 16 -114
11 -109 -8 -112 -8 -112 -16 0 -3 35 -12 78 -19 239 -39 259 -53 64 -45 -124
5 -156 4 -175 -8 -12 -8 -36 -17 -53 -20 -31 -4 -31 -4 -21 25 7 21 6 48 -2
92 -17 92 -14 116 18 167 36 57 87 96 154 119 60 20 105 23 141 9z m197 -63
c-10 -9 -11 -8 -5 6 3 10 9 15 12 12 3 -3 0 -11 -7 -18z m-524 -304 c-3 -10
-5 -4 -5 12 0 17 2 24 5 18 2 -7 2 -21 0 -30z m783 -3 l0 -30 -87 1 -88 1 85
28 c47 15 86 28 88 29 1 1 2 -12 2 -29z m-375 -70 c18 -34 20 -145 4 -156 -7
-4 -44 -7 -83 -7 -59 0 -80 5 -128 30 -42 22 -53 25 -45 12 6 -9 24 -24 41
-33 l31 -16 -49 6 c-60 6 -62 7 -68 39 -5 24 13 51 25 39 3 -3 13 -1 23 4 13
7 22 4 39 -16 42 -49 136 -25 150 38 7 33 14 36 34 18 11 -11 11 -9 2 9 -11
22 -48 37 -112 46 -42 6 -62 -5 -126 -67 l-43 -40 0 43 c0 80 3 81 155 81
l134 0 16 -30z m215 10 c-11 -7 -11 -10 -2 -10 7 0 10 -4 7 -10 -10 -17 -25
-11 -25 10 0 12 7 20 18 20 14 0 15 -2 2 -10z m154 -22 c7 -35 1 -50 -8 -20
-4 11 -23 27 -44 36 l-37 15 41 0 c39 1 42 -1 48 -31z m-996 -12 c36 -19 63
-49 65 -75 1 -11 4 -21 8 -21 4 0 10 -15 14 -32 5 -23 9 -28 12 -15 3 10 0 31
-6 47 -9 29 -9 30 30 40 21 6 39 14 39 18 1 14 47 41 82 47 l35 7 9 -84 c9
-81 10 -83 39 -89 17 -4 90 -7 164 -8 149 -1 171 7 171 61 0 30 0 30 98 32 31
1 44 -3 48 -16 3 -9 19 -29 37 -44 70 -58 72 -91 10 -140 -35 -26 -41 -34 -23
-29 61 18 91 64 75 115 -6 18 -2 20 44 20 l51 0 0 -117 c0 -100 -4 -127 -23
-174 -39 -94 -97 -180 -131 -194 -31 -13 -31 -13 -37 18 -4 19 -7 24 -8 11 0
-11 -8 -29 -16 -40 -14 -19 -14 -19 -15 1 -1 17 -3 16 -16 -7 -18 -34 -38 -37
-29 -5 6 19 3 18 -20 -8 -25 -29 -26 -29 -20 -5 l6 25 -18 -22 c-11 -13 -33
-23 -60 -26 l-43 -4 26 30 c36 43 21 46 -16 3 -39 -44 -47 -43 -177 20 -140
68 -184 107 -220 196 -17 40 -33 81 -36 91 -6 16 -12 15 -64 -14 -51 -27 -65
-30 -114 -26 -31 3 -71 13 -90 23 -19 10 -36 18 -39 19 -23 2 -81 103 -79 138
0 7 4 3 9 -8 6 -14 9 -3 9 40 1 41 8 73 22 99 25 48 17 60 -10 15 -12 -19 -21
-29 -21 -23 0 5 11 25 25 44 14 19 25 29 25 23 0 -6 13 -13 30 -16 51 -11 115
-80 148 -160 35 -81 61 -105 31 -27 -10 27 -19 57 -19 66 0 32 -61 93 -123
123 l-62 30 45 20 c53 24 91 26 128 7z m972 -56 c-4 -8 -20 -28 -34 -43 -20
-22 -34 -28 -58 -25 -17 2 -33 9 -36 16 -2 7 0 12 5 11 43 -8 93 34 93 78 l0
28 19 -25 c13 -16 16 -30 11 -40z m-893 8 c-3 -8 -6 -5 -6 6 -1 11 2 17 5 13
3 -3 4 -12 1 -19z m979 -32 c-7 -38 -30 -64 -41 -46 -9 15 4 70 17 70 6 0 8
-9 5 -20 -3 -11 -1 -17 4 -14 6 3 9 13 8 22 -2 26 0 36 7 29 4 -3 3 -22 0 -41z
m41 22 c-3 -8 -6 -5 -6 6 -1 11 2 17 5 13 3 -3 4 -12 1 -19z m-107 -78 c-6 -4
-30 -7 -53 -8 l-42 -2 30 19 c17 10 40 31 50 47 l20 29 3 -39 c2 -21 -2 -42
-8 -46z m136 28 c4 -13 7 -52 6 -88 -1 -45 1 -60 8 -50 8 13 10 12 10 -2 0
-10 -7 -18 -16 -18 -12 0 -15 -6 -10 -26 4 -16 3 -23 -3 -19 -6 3 -8 0 -5 -8
7 -18 -40 -56 -64 -53 -9 2 -20 -2 -24 -8 -4 -6 -8 35 -8 91 0 105 0 105 49
145 11 10 21 27 21 38 0 27 27 25 36 -2z m-1203 -555 c-7 -2 -19 -2 -25 0 -7
3 -2 5 12 5 14 0 19 -2 13 -5z m513 -126 c27 -14 67 -28 87 -32 34 -7 36 -10
43 -54 7 -46 22 -96 23 -75 1 8 15 5 39 -7 20 -11 44 -18 53 -16 13 4 19 -7
26 -44 l10 -49 -32 0 c-63 0 -95 -12 -118 -44 l-22 -31 25 16 c14 9 44 20 68
24 23 4 42 11 42 16 0 5 9 9 20 9 18 0 20 -6 19 -57 0 -32 -8 -100 -17 -151
l-17 -93 -115 118 c-123 127 -212 227 -250 281 l-23 34 22 87 c11 48 21 98 21
111 l0 23 23 -20 c12 -12 45 -32 73 -46z m-912 -316 c-6 -6 -24 19 -24 34 1 6
7 1 15 -9 8 -11 12 -22 9 -25z m1103 13 c-3 -3 -12 -4 -19 -1 -8 3 -5 6 6 6
11 1 17 -2 13 -5z m-1038 -63 c10 -14 27 -44 38 -66 l20 -40 -22 -40 c-13 -24
-40 -51 -67 -68 -40 -25 -53 -28 -88 -22 -25 4 -55 19 -74 36 l-31 29 48 -21
c67 -28 116 -18 165 34 36 38 39 87 9 123 -22 25 -32 29 -80 29 -43 0 -53 3
-49 14 3 9 1 12 -6 7 -7 -4 -12 -5 -12 -2 0 3 12 12 26 19 37 19 98 3 123 -32z
m-6 -40 c6 -6 10 -27 9 -48 -1 -30 -9 -45 -37 -70 -30 -28 -42 -33 -85 -33
-41 0 -56 5 -75 25 -14 13 -25 33 -25 45 0 31 60 90 100 99 38 8 96 -1 113
-18z m424 -318 c-26 -29 -29 -25 -17 17 6 19 8 44 5 55 -3 11 3 4 14 -15 19
-35 19 -35 -2 -57z m1230 35 c-2 -13 -4 -5 -4 17 -1 22 1 32 4 23 2 -10 2 -28
0 -40z"/>
<path d="M1559 1292 c12 -22 29 -36 54 -45 10 -4 2 9 -19 28 -42 40 -49 43
-35 17z"/>
<path d="M1630 1270 c27 -21 40 -25 40 -12 0 15 -24 32 -44 32 -20 0 -19 -2 4
-20z"/>
<path d="M1401 1233 c-19 -9 -29 -19 -23 -21 11 -3 72 25 72 33 0 9 -14 5 -49
-12z"/>
<path d="M1788 1227 c11 -13 8 -21 -18 -51 -18 -20 -49 -41 -71 -47 -33 -10
-47 -9 -101 11 -35 12 -87 35 -117 52 -67 37 -78 30 -13 -10 65 -40 192 -83
222 -75 37 9 88 50 106 84 11 22 20 29 32 24 11 -4 13 -3 7 3 -5 5 -21 13 -35
17 -22 7 -23 6 -12 -8z"/>
<path d="M1418 882 c-21 -14 -36 -28 -33 -30 5 -5 85 45 85 53 0 9 -15 3 -52
-23z"/>
<path d="M1334 454 c9 -8 16 -20 16 -25 0 -5 5 -9 10 -9 6 0 3 11 -6 25 -9 14
-21 25 -26 25 -5 0 -2 -7 6 -16z"/>
<path d="M323 344 c-3 -8 -16 -20 -29 -25 -27 -10 -31 -27 -9 -35 10 -4 13
-14 9 -31 -6 -23 -5 -24 14 -14 12 6 24 16 28 22 5 8 1 8 -13 0 -20 -10 -20
-10 0 34 23 49 28 52 51 29 21 -21 20 -30 -6 -49 -23 -17 -23 -17 -1 -11 18 6
20 3 16 -14 -5 -20 -23 -28 -23 -10 0 6 -5 10 -12 10 -7 0 -2 -10 10 -22 19
-20 24 -21 32 -8 5 8 10 28 10 43 0 15 7 42 16 58 19 38 16 41 -24 30 -20 -6
-32 -6 -32 0 0 15 -30 10 -37 -7z m87 -8 c0 -11 -19 -15 -25 -6 -3 5 1 10 9
10 9 0 16 -2 16 -4z m-100 -36 c0 -5 -2 -10 -4 -10 -3 0 -8 5 -11 10 -3 6 -1
10 4 10 6 0 11 -4 11 -10z"/>
<path d="M410 275 c0 -23 2 -24 20 -15 24 13 26 26 4 34 -23 9 -24 8 -24 -19z"/>
<path d="M2311 384 c0 -88 -7 -135 -41 -299 -9 -43 5 -75 15 -34 42 180 59
381 35 419 -6 9 -9 -21 -9 -86z"/>
<path d="M1869 305 c-4 -5 -9 -39 -13 -75 -4 -36 -14 -100 -22 -143 -19 -95
-13 -112 9 -25 31 127 47 279 26 243z"/>
<path d="M2042 280 c0 -19 3 -55 7 -80 11 -61 12 -4 1 65 -6 41 -7 44 -8 15z"/>
<path d="M1904 229 c9 -83 16 -88 16 -11 0 34 -5 64 -11 68 -8 5 -10 -11 -5
-57z"/>
<path d="M2340 281 c0 -4 34 -36 75 -70 41 -34 75 -66 75 -71 0 -6 5 -10 11
-10 5 0 7 6 3 13 -8 12 19 -8 69 -52 15 -14 27 -21 26 -15 -1 15 -237 214
-253 214 -3 0 -6 -4 -6 -9z"/>
<path d="M2052 130 c0 -14 2 -19 5 -12 2 6 2 18 0 25 -3 6 -5 1 -5 -13z"/>
</g>
</svg>
